<svg width="260" height="69" viewBox="0 0 260 69" fill="none" xmlns="http://www.w3.org/2000/svg">
<g clip-path="url(#clip0_4056_235)">
<path d="M121.3 57.77V52.85L119.18 56.07H119.14L117.04 52.88V57.77H115.41V50.24H117.2L119.18 53.43L121.16 50.24H122.95V57.77H121.3Z" fill="white"/>
<path d="M132.49 57.7699L131.8 56.0799H128.62L127.93 57.7699H126.24L129.47 50.1799H131L134.23 57.7699H132.49ZM130.21 52.1699L129.21 54.6099H131.21L130.21 52.1699Z" fill="white"/>
<path d="M142.1 57.77L140.49 55.36H139.19V57.77H137.53V50.24H140.97C142.75 50.24 143.81 51.18 143.81 52.73V52.75C143.81 53.97 143.15 54.73 142.19 55.09L144.03 57.78H142.09L142.1 57.77ZM142.13 52.81C142.13 52.1 141.64 51.73 140.83 51.73H139.18V53.89H140.86C141.67 53.89 142.13 53.46 142.13 52.82V52.8V52.81Z" fill="white"/>
<path d="M150.97 57.89C148.75 57.89 147.11 56.18 147.11 54.02V54C147.11 51.86 148.72 50.1 151.04 50.1C152.46 50.1 153.31 50.57 154.01 51.26L152.95 52.48C152.37 51.95 151.78 51.63 151.02 51.63C149.75 51.63 148.84 52.68 148.84 53.98V54C148.84 55.29 149.73 56.37 151.02 56.37C151.88 56.37 152.41 56.03 153 55.49L154.06 56.56C153.28 57.39 152.42 57.9 150.97 57.9V57.89Z" fill="white"/>
<path d="M162.23 57.77V54.75H159.17V57.77H157.51V50.24H159.17V53.22H162.23V50.24H163.89V57.77H162.23Z" fill="white"/>
<path d="M167.83 57.77V50.24H173.51V51.71H169.47V53.24H173.02V54.71H169.47V56.29H173.56V57.76H167.82L167.83 57.77ZM169.77 49.64L170.98 47.73L172.39 48.34L171.01 49.63H169.76L169.77 49.64Z" fill="white"/>
<path d="M185.49 57.77H182.55V50.24H185.49C187.86 50.24 189.49 51.87 189.49 53.99V54.01C189.49 56.13 187.85 57.78 185.49 57.78V57.77ZM187.76 54C187.76 52.67 186.85 51.73 185.49 51.73H184.21V56.27H185.49C186.85 56.27 187.76 55.36 187.76 54.02V54Z" fill="white"/>
<path d="M193.58 51.95H192.91V50.23H194.65V51.68C194.65 53.1 193.94 53.67 192.66 53.69L192.52 53.01C193.26 52.93 193.63 52.56 193.57 51.94L193.58 51.95Z" fill="white"/>
<path d="M202.85 57.7699L202.16 56.0799H198.98L198.29 57.7699H196.6L199.83 50.1799H201.36L204.59 57.7699H202.85ZM200.57 52.1699L199.57 54.6099H201.57L200.57 52.1699Z" fill="white"/>
<path d="M210.45 57.87C209.31 57.87 208.16 57.47 207.25 56.66L208.23 55.49C208.91 56.05 209.62 56.4 210.48 56.4C211.16 56.4 211.57 56.13 211.57 55.69V55.67C211.57 55.25 211.31 55.03 210.05 54.71C208.53 54.32 207.55 53.9 207.55 52.41V52.39C207.55 51.02 208.65 50.12 210.19 50.12C211.29 50.12 212.22 50.46 212.99 51.08L212.13 52.33C211.46 51.87 210.81 51.59 210.17 51.59C209.53 51.59 209.2 51.88 209.2 52.25V52.27C209.2 52.77 209.52 52.93 210.83 53.26C212.36 53.66 213.22 54.21 213.22 55.52V55.54C213.22 57.04 212.08 57.88 210.45 57.88V57.87Z" fill="white"/>
<path d="M216.87 57.77V50.24H218.53V57.77H216.87Z" fill="white"/>
<path d="M222.56 57.77V50.24H228.24V51.71H224.2V53.24H227.75V54.71H224.2V56.29H228.29V57.76H222.55L222.56 57.77Z" fill="white"/>
<path d="M99.6501 24.54L106.61 18.07C107.4 17.33 107.78 16.55 107.78 15.63C107.78 13.9 106.47 12.6 104.74 12.6C103.71 12.6 102.91 12.97 102.05 13.82L92.3301 23.43V15.85C92.3301 14.03 90.9001 12.6 89.0701 12.6C87.2401 12.6 85.8101 14.03 85.8101 15.85V36.29C85.8101 38.11 87.2401 39.54 89.0701 39.54C90.9001 39.54 92.3301 38.11 92.3301 36.29V31.35L95.0901 28.79L102.16 38.02C102.74 38.77 103.52 39.54 104.89 39.54C106.77 39.54 108.19 38.18 108.19 36.36C108.19 35.33 107.75 34.65 107.32 34.12L99.6601 24.54H99.6501Z" fill="white"/>
<path d="M115.52 12.6099C113.69 12.6099 112.26 14.0399 112.26 15.8599V36.2999C112.26 38.1199 113.69 39.5499 115.52 39.5499C117.35 39.5499 118.78 38.1199 118.78 36.2999V15.8599C118.78 14.0399 117.35 12.6099 115.52 12.6099Z" fill="white"/>
<path d="M147.71 12.6799H147.08C145.81 12.6799 144.86 13.2099 144.18 14.3099L137.67 24.8599L131.19 14.3499C130.53 13.2699 129.49 12.6799 128.25 12.6799H127.62C125.79 12.6799 124.36 14.1099 124.36 15.9299V36.3699C124.36 38.1499 125.76 39.5499 127.55 39.5499C129.34 39.5499 130.77 38.1299 130.77 36.3699V25.0699L134.88 31.3699C135.61 32.4599 136.5 32.9899 137.59 32.9899C138.68 32.9899 139.57 32.4599 140.3 31.3699L144.48 24.9599V36.2999C144.48 38.0899 145.93 39.5499 147.7 39.5499C149.47 39.5499 150.96 38.1199 150.96 36.2999V15.9299C150.96 14.1099 149.53 12.6799 147.7 12.6799H147.71Z" fill="white"/>
<path d="M173.88 12.83H166.19C164.36 12.83 162.93 14.26 162.93 16.08V36.3C162.93 38.12 164.36 39.55 166.19 39.55C168.02 39.55 169.45 38.12 169.45 36.3V31.64H173.33C179.91 31.64 184.17 27.93 184.17 22.13C184.17 16.33 180.13 12.84 173.88 12.84V12.83ZM173.51 25.76H169.45V18.78H173.4C174.96 18.78 177.57 19.23 177.57 22.31C177.57 24.41 175.98 25.77 173.51 25.77V25.76Z" fill="white"/>
<path d="M206.88 12.6099C205.05 12.6099 203.62 14.0399 203.62 15.8599V22.9799H194.03V15.8599C194.03 14.0399 192.6 12.6099 190.77 12.6099C188.94 12.6099 187.51 14.0399 187.51 15.8599V36.2999C187.51 38.1199 188.94 39.5499 190.77 39.5499C192.6 39.5499 194.03 38.1199 194.03 36.2999V29.0399H203.62V36.2999C203.62 38.1199 205.05 39.5499 206.88 39.5499C208.71 39.5499 210.14 38.1199 210.14 36.2999V15.8599C210.14 14.0399 208.71 12.6099 206.88 12.6099Z" fill="white"/>
<path d="M230.01 14.9099C229.29 13.3099 227.99 12.4199 226.35 12.4199H226.02C224.35 12.4199 223.04 13.2999 222.32 14.9099L213.35 35.0899C213.17 35.4899 212.98 35.9699 212.98 36.4699C212.98 38.1899 214.32 39.5299 216.02 39.5299C217.35 39.5299 218.47 38.7799 219.02 37.5099L220.71 33.5599H231.47L233.09 37.3299C233.72 38.7699 234.8 39.5299 236.2 39.5299C237.95 39.5299 239.31 38.1499 239.31 36.3899C239.31 35.9899 239.2 35.5699 238.98 35.0799L230 14.8999L230.01 14.9099ZM229.01 27.7299H223.16L226.08 20.7999L229 27.7299H229.01Z" fill="white"/>
<path d="M256.96 12.8299H240.41C238.73 12.8299 237.37 14.1899 237.37 15.8599C237.37 17.5299 238.73 18.8899 240.41 18.8899H245.43V36.2999C245.43 38.1199 246.86 39.5499 248.69 39.5499C250.52 39.5499 251.95 38.1199 251.95 36.2999V18.8799H256.97C258.65 18.8799 260.01 17.5199 260.01 15.8499C260.01 14.1799 258.65 12.8199 256.97 12.8199L256.96 12.8299Z" fill="white"/>
<path d="M35.24 0H33.37C14.86 0.5 0 15.66 0 34.29C0 52.92 15.36 68.6 34.31 68.6C53.26 68.6 68.62 53.24 68.62 34.29C68.62 15.34 53.76 0.5 35.24 0ZM34.31 66.53C16.53 66.53 2.07 52.07 2.07 34.29C2.07 16.51 16.53 2.05 34.31 2.05C52.09 2.05 66.55 16.51 66.55 34.29C66.55 52.07 52.09 66.53 34.31 66.53Z" fill="#F8AD03"/>
<path d="M37.74 51.97C37.74 50.89 37.21 51.04 36.48 51.13C36.13 51.17 35.68 51.23 35.68 51.45C35.68 51.67 35.71 51.86 35.71 52.24C35.71 53.21 35.06 53.91 35.06 53.91L38.97 53.89C38.46 53.58 37.75 53.05 37.75 51.97H37.74Z" fill="#F8AD03"/>
<path d="M31.68 11.06H37.95C37.95 11.06 35.63 9.95996 34.82 9.95996C34.01 9.95996 32.68 10.53 31.69 11.06H31.68Z" fill="#F8AD03"/>
<path d="M32.02 54.09C31.67 54.09 31.5 54.1 31.34 54.02C31.18 53.94 30.63 53.77 29.83 53.77C29.56 53.77 28.38 54.06 28.38 54.36C28.38 54.66 29.26 54.56 29.56 54.56C29.86 54.56 31.34 54.5 31.51 54.48C31.67 54.46 32.69 54.39 32.69 54.25C32.69 54.11 32.37 54.1 32.02 54.1V54.09Z" fill="#F8AD03"/>
<path d="M37.3 55.5C36.97 55.5 36.59 55.64 36.59 55.7C36.59 55.76 36.65 55.87 36.91 55.87C37.17 55.87 37.15 55.73 37.25 55.73C37.5 55.73 37.41 56.29 37.67 56.29C37.78 56.29 38.23 55.89 38.23 55.77C38.23 55.65 37.64 55.51 37.31 55.51L37.3 55.5Z" fill="#F8AD03"/>
<path d="M34.31 2.95996C17.03 2.95996 2.96997 17.02 2.96997 34.29C2.96997 51.56 17.03 65.62 34.3 65.62C51.57 65.62 65.63 51.56 65.63 34.29C65.63 17.02 51.58 2.95996 34.31 2.95996ZM22.04 41.38C21.52 41.37 21.05 41.36 20.64 41.36H18.58C18.17 41.36 17.68 41.36 17.13 41.38L13.2 34.7V38.04C13.2 38.56 13.22 38.98 13.26 39.31C13.3 39.63 13.38 39.89 13.5 40.07C13.62 40.25 13.78 40.38 13.98 40.45C14.18 40.52 14.45 40.56 14.78 40.56H14.84V41.38C14.12 41.37 13.49 41.36 12.96 41.35C12.42 41.35 11.97 41.34 11.61 41.34C11.25 41.34 10.81 41.34 10.27 41.35C9.73997 41.35 9.11997 41.37 8.41997 41.38V40.56C8.73997 40.5 8.97997 40.42 9.13997 40.31C9.30997 40.2 9.43997 40.02 9.52997 39.78C9.56997 39.68 9.60997 39.51 9.63997 39.26C9.66997 39.01 9.70997 38.73 9.72997 38.4C9.75997 38.08 9.77997 37.72 9.78997 37.33C9.79997 36.94 9.80997 36.56 9.80997 36.18V30.56C9.80997 30.22 9.80997 29.94 9.79997 29.73C9.79997 29.51 9.77997 29.33 9.74997 29.18C9.71997 29.03 9.68997 28.91 9.64997 28.82C9.60997 28.73 9.54997 28.64 9.47997 28.56C9.33997 28.4 9.17997 28.29 8.99997 28.2C8.81997 28.11 8.54997 28.06 8.18997 28.03V27.21C9.60997 27.25 10.69 27.27 11.42 27.27C11.74 27.27 12.16 27.27 12.68 27.26C13.2 27.26 13.8 27.24 14.46 27.21V28.16C14.18 28.19 13.96 28.24 13.8 28.32C13.63 28.4 13.51 28.53 13.42 28.71C13.33 28.89 13.27 29.14 13.23 29.45C13.2 29.76 13.18 30.17 13.18 30.68V34.3C13.79 33.67 16.75 29.43 16.95 29.13C17.14 28.83 17.24 28.63 17.24 28.52C17.24 28.24 16.94 28.08 16.33 28.03V27.21C17.34 27.25 18.1 27.27 18.61 27.27C18.84 27.27 19.14 27.27 19.51 27.26C19.88 27.26 20.3 27.24 20.78 27.21V28.03C20.42 28.09 20.1 28.17 19.82 28.28C19.54 28.39 19.25 28.57 18.96 28.81C18.67 29.05 15.68 33 15.68 33C15.68 33 20.09 39.37 20.27 39.62C20.46 39.87 20.64 40.06 20.81 40.2C20.98 40.34 21.16 40.44 21.35 40.49C21.54 40.54 21.76 40.56 22.02 40.56V41.38H22.04ZM45.58 50.95C45.59 51.01 45.36 51.34 45.08 51.81C44.78 52.3 44.41 52.96 44.02 52.96C43.88 52.96 43.63 52.82 43.02 52.49C41.74 51.79 40.32 51.36 40 51.2C39.67 51.04 39.87 51.58 39.87 51.91C39.87 52.24 40.49 52.54 40.76 52.61C41.03 52.68 41.71 52.8 42.18 52.84C42.64 52.88 42.69 52.97 42.69 53.12C42.69 53.34 41.65 54.87 41.46 54.88C41.29 54.88 41.14 54.77 41.08 54.77C41.02 54.77 40.97 54.84 40.97 54.89C40.97 54.94 41.02 55 41.02 55.16C41.02 55.69 39.92 56.63 39.92 57.07C39.92 57.62 43.66 58.56 43.66 58.86C43.66 58.94 43.52 59.07 42.94 59.86C42.36 60.65 42.12 60.91 41.87 60.91C41.75 60.91 40.88 60.27 40.37 59.94C39.85 59.61 38.86 58.99 38.15 58.99C37.7 58.99 36.78 59.8 36.39 59.98C36.01 60.16 34.73 60.58 33.91 60.58C33.09 60.58 32.43 59.7 32.43 59.06C32.43 58.42 32.99 58.24 33.27 58.24C33.55 58.24 33.86 58.35 34.19 58.35C35.44 58.35 36.43 57.72 36.43 57.63C36.43 57.54 36.03 57.11 35.46 57.11C34.89 57.11 34.72 57.52 34.72 57.58C34.72 57.64 34.74 57.75 34.68 57.77C34.6 57.81 34.4 57.74 34.32 57.74H34.07C33.99 57.74 33.6 57.67 33.6 57.3C33.6 56.93 34.12 56.22 34.34 56.12C34.56 56.02 34.57 55.96 34.57 55.93C34.57 55.9 34.59 55.9 34.52 55.86C34.45 55.82 34.14 55.83 33.85 55.83C33.21 55.83 33.23 56.14 33.21 56.41C33.18 56.96 32.67 58.05 31.91 58.97C31.14 59.89 29.74 60.69 27.74 60.69C25.74 60.69 25.44 59.46 25.44 59.11C25.44 58.76 25.65 58.25 26.04 58.25C26.82 58.25 27.63 58.62 28.29 58.62C29.46 58.62 31.06 57.59 31.06 56.86C31.06 56.4 30.52 56.2 29.91 56.2C29.3 56.2 28.09 56.45 27.01 56.45C26.5 56.45 25.99 56.18 25.99 55.46C25.99 54.74 26.56 52.89 26.69 52.54C26.83 52.19 26.88 52.25 27.92 52.24C30.97 52.2 31.43 52.09 31.43 51.76C31.43 51.65 31.43 51.52 30.83 51.52C30.05 51.52 28.35 51.97 28.11 51.97C27.87 51.97 28.02 51.82 27.36 51.82C26.7 51.82 25.42 52.54 24.41 52.54C23.4 52.54 23.06 51.36 23.06 50.97C23.06 50.58 23.31 50.41 24.51 50.41C26.91 50.41 28.15 49.77 28.15 49.66C28.15 49.55 27.5 49.59 27.34 49.59C27.18 49.59 26.22 49.52 26.22 48.87C26.22 48.22 27.49 48.25 27.8 48.25C28.11 48.25 29.22 48.44 30.01 48.44C30.8 48.44 31.15 47.97 31.15 47.9C31.15 47.83 31.08 47.78 31 47.74C30.92 47.71 30.66 47.7 30.3 47.7C29.89 47.7 28.11 47.99 27.98 47.99C27.88 47.99 26.7 47.95 26.7 47.09C26.7 46.13 29.85 46.21 30.16 46.21C30.47 46.21 33.56 46.33 33.74 46.33C33.92 46.33 34.11 46.54 34.11 46.87C34.11 47.6 33.31 48.22 33.08 48.51C32.85 48.8 32.46 49.2 32.21 49.44C31.96 49.69 32.17 49.67 32.79 49.67C33.41 49.67 33.61 49.96 33.61 50.19C33.61 50.42 33.49 50.7 33.49 50.91C33.49 51.27 33.35 51.41 33.35 51.76C33.35 52.11 33.3 52.12 33.26 52.33C33.21 52.54 33.07 52.83 33.37 52.83C33.67 52.83 34.15 52.24 34.15 51.68C34.15 51.12 33.97 51.19 33.97 50.37C33.97 49.55 34.36 49.66 34.58 49.66C36.9 49.66 37.07 49.72 37.07 49.55C37.07 49.39 35.89 48.57 35.64 48.38C35.39 48.19 34.52 47.32 34.52 46.85C34.52 46.38 35.15 46.06 35.28 46.06C35.41 46.06 40.35 46.24 40.85 46.25C41.36 46.25 41.8 46.25 41.8 46.61C41.8 46.97 41.5 47.26 41.27 47.52C41.04 47.78 40.52 47.75 40.52 47.75H38.11V47.92C38.11 48.06 38.87 48.36 39.59 48.36C40.31 48.36 41.32 48.18 42.64 48.18C42.72 48.18 43.32 48.09 43.22 48.72C43.12 49.35 42.3 49.58 42.15 49.58C42.05 49.58 41.96 49.5 41.9 49.5C41.84 49.5 41.77 49.57 41.77 49.66C41.77 49.75 41.9 49.81 42.01 49.84C42.12 49.87 44.42 50.52 45.07 50.68C45.72 50.84 45.59 50.9 45.61 50.96L45.58 50.95ZM26.21 26.19C26.94 26.39 30.77 27.1 34.31 27.1C37.85 27.1 41.68 26.39 42.41 26.19C42.21 26.92 41.5 30.75 41.5 34.29C41.5 37.83 42.21 41.66 42.41 42.39C41.68 42.19 37.85 41.48 34.31 41.48C30.77 41.48 26.94 42.19 26.21 42.39C26.41 41.66 27.12 37.83 27.12 34.29C27.12 30.75 26.41 26.92 26.21 26.19ZM45.18 12.48C45.13 12.63 44.77 13.2 44.38 13.2C43.99 13.2 43.14 12.83 42.69 12.67C42.24 12.51 42.19 12.82 42.13 12.97C42.07 13.12 41.94 13.33 41.71 13.25C41.48 13.18 35.98 12.76 35.83 12.76C35.68 12.76 35.65 13.11 35.65 13.22C35.65 13.33 35.68 13.56 35.86 13.56C37.09 13.56 41 13.93 41.87 14.04C42.75 14.15 43.29 14.25 43.29 14.44C43.29 14.63 42.77 15.54 42.53 15.96C42.3 16.38 41.74 16.02 41.43 15.91C40.01 15.37 35.53 15.46 35.53 15.46V18.84C39.42 16.76 40.74 16.34 41.07 16.34C41.24 16.34 41.76 16.52 41.76 17.07C41.76 17.87 40.49 18.27 40 18.38C39.5 18.49 36.91 19.55 36.6 19.65C36.29 19.75 36.34 19.91 36.34 19.91C39.76 20.07 44.85 20.23 45.04 20.43C45.13 20.53 44.11 22.61 43.76 22.61C43.18 22.61 39.82 21.56 33.92 21.56C25.01 21.56 25.42 22.64 24.29 22.64C23.91 22.64 23.46 22.18 23.46 21.8C23.46 20.65 25.15 20.06 25.39 19.94C25.63 19.82 32.01 19.83 32.01 19.83C32 19.48 29.72 18.87 28.82 18.65C27.95 18.44 26.63 17.73 26.63 17.34C26.63 16.95 26.99 16.28 27.58 16.28C28.17 16.28 33.2 18.69 33.2 18.69V15.52C32.74 15.37 32.18 15.38 30.66 15.38C29.56 15.38 26.98 16.13 26.38 16.12C25.88 16.12 25.61 15.53 25.61 15.31C25.61 14.39 27.25 13.77 27.5 13.78C27.75 13.79 29.33 13.71 29.55 13.64C29.77 13.58 32.24 13.55 32.79 13.52C33.34 13.5 33.3 13.31 33.3 13.09C33.3 12.87 33.22 12.81 33.15 12.77C33.09 12.74 32.25 12.75 31.39 12.75C30.53 12.75 29.58 13.08 27.44 13.16C26.73 13.19 26.78 13.15 26.61 12.86C26.44 12.58 26 12.66 25.2 12.71C23.33 12.83 22.85 12.04 22.85 11.24C22.85 10.44 23.35 10.26 23.78 10.26C29.79 10.26 32.39 8.65996 33.02 8.38996C33.65 8.11996 34.33 7.62996 34.54 7.62996C34.75 7.62996 35.25 7.97996 36.5 8.51996C37.7 9.03996 44.88 10.89 45.23 10.89C45.58 10.89 45.8 10.99 45.8 11.14C45.8 11.29 45.25 12.31 45.2 12.46L45.18 12.48ZM54.81 35.96C54.06 35.96 53.14 35.58 52.98 35.17V37.69C52.98 38.76 53.08 39.49 53.27 39.89C53.38 40.09 53.52 40.23 53.69 40.32C53.86 40.41 54.14 40.48 54.53 40.52L55.3 40.63V41.35C54.51 41.34 53.82 41.33 53.22 41.32C52.62 41.32 52.12 41.31 51.72 41.31C51.32 41.31 50.82 41.31 50.23 41.32C49.64 41.32 48.95 41.34 48.16 41.35V40.53C48.49 40.5 48.75 40.45 48.93 40.36C49.11 40.28 49.24 40.14 49.32 39.96C49.43 39.74 49.52 39.28 49.58 38.6C49.64 37.92 49.67 37.17 49.67 36.35V32.8C49.66 31.87 49.65 31.15 49.64 30.63C49.64 30.12 49.62 29.73 49.59 29.47C49.56 29.21 49.52 29.02 49.47 28.91C49.42 28.8 49.34 28.68 49.24 28.55C49.07 28.4 48.91 28.29 48.73 28.22C48.56 28.16 48.28 28.1 47.89 28.06V27.26C48.21 27.26 48.49 27.26 48.74 27.27C48.99 27.27 49.21 27.28 49.4 27.28H50.48L54.62 27.24C55.22 27.24 59.1 26.89 59.1 31.24C59.1 35.59 55.72 35.97 54.82 35.97L54.81 35.96Z" fill="#F8AD03"/>
<path d="M53.49 28.09C53.24 28.09 52.98 28.29 52.98 28.45V33.86C52.98 34.65 53.03 34.76 53.74 34.76C54.45 34.76 55.78 34.01 55.78 31.1C55.78 28.19 53.74 28.1 53.48 28.1L53.49 28.09Z" fill="#F8AD03"/>
<path d="M34.31 40.57C36.91 40.57 39.61 40.94 41.24 41.22C40.95 39.59 40.58 36.89 40.58 34.29C40.58 31.69 40.95 28.99 41.24 27.36C39.61 27.65 36.91 28.01 34.31 28.01C31.71 28.01 29.01 27.64 27.38 27.36C27.67 28.99 28.03 31.69 28.03 34.29C28.03 36.89 27.66 39.59 27.38 41.22C29.01 40.93 31.71 40.57 34.31 40.57ZM28.47 28.46C29.93 28.67 32.11 28.93 34.31 28.93C36.51 28.93 38.69 28.68 40.15 28.46C39.94 29.91 39.68 32.1 39.68 34.3C39.68 36.5 39.93 38.68 40.15 40.14C38.7 39.93 36.51 39.67 34.31 39.67C32.11 39.67 29.93 39.92 28.47 40.14C28.68 38.68 28.94 36.5 28.94 34.3C28.94 32.1 28.69 29.92 28.47 28.46Z" fill="#F8AD03"/>
</g>
<defs>
<clipPath id="clip0_4056_235">
<rect width="260" height="69" fill="white"/>
</clipPath>
</defs>
</svg>
